<?xml version="1.0" encoding="utf-8"?>
<!-- Generator: Adobe Illustrator 26.3.1, SVG Export Plug-In . SVG Version: 6.00 Build 0)  -->
<svg version="1.1" id="Layer_1" xmlns="http://www.w3.org/2000/svg" xmlns:xlink="http://www.w3.org/1999/xlink" x="0px" y="0px"
	 viewBox="0 0 720 360" style="enable-background:new 0 0 720 360;" xml:space="preserve">
<style type="text/css">
	
		.st0{clip-path:url(#SVGID_00000047052219347780770260000017539173162731455885_);fill-rule:evenodd;clip-rule:evenodd;fill:#262526;}
	
		.st1{clip-path:url(#SVGID_00000006673155564273411070000004388148862550329777_);fill-rule:evenodd;clip-rule:evenodd;fill:#FFDE62;}
	
		.st2{clip-path:url(#SVGID_00000006673155564273411070000004388148862550329777_);fill:none;stroke:#262526;stroke-width:4.9145;stroke-miterlimit:10;}
	
		.st3{clip-path:url(#SVGID_00000006673155564273411070000004388148862550329777_);fill:none;stroke:#262526;stroke-width:4.9145;stroke-linecap:round;stroke-miterlimit:10;}
	
		.st4{clip-path:url(#SVGID_00000006673155564273411070000004388148862550329777_);fill-rule:evenodd;clip-rule:evenodd;fill:#BE584A;}
	
		.st5{clip-path:url(#SVGID_00000006673155564273411070000004388148862550329777_);fill:none;stroke:#262526;stroke-width:1.9658;stroke-miterlimit:10;}
	
		.st6{clip-path:url(#SVGID_00000006673155564273411070000004388148862550329777_);fill:none;stroke:#262526;stroke-width:1.9658;stroke-linecap:round;stroke-miterlimit:10;}
	
		.st7{clip-path:url(#SVGID_00000006673155564273411070000004388148862550329777_);fill:none;stroke:#262526;stroke-width:4.9145;stroke-linecap:round;stroke-linejoin:round;stroke-miterlimit:10;}
	
		.st8{clip-path:url(#SVGID_00000006673155564273411070000004388148862550329777_);fill:none;stroke:#262526;stroke-width:4.9145;stroke-linejoin:round;stroke-miterlimit:10;}
</style>
<g>
	<defs>
		<rect id="SVGID_1_" x="0.4" y="132.5" width="719.2" height="124.1"/>
	</defs>
	<clipPath id="SVGID_00000117640613333671960840000016682843274759258771_">
		<use xlink:href="#SVGID_1_"  style="overflow:visible;"/>
	</clipPath>
	
		<path style="clip-path:url(#SVGID_00000117640613333671960840000016682843274759258771_);fill-rule:evenodd;clip-rule:evenodd;fill:#262526;" d="
		M43.1,208.2c6,0,11.2-1.5,15.7-4.5c4.6-3,7.9-7.1,10.1-12.1h10c-2.8,7.8-7.4,14-13.8,18.5c-6.8,4.8-14.9,7.3-24.2,7.3
		c-12.2,0-22.2-4.1-29.7-12.4C4,197,0.4,187,0.4,174.9c0-12.1,3.6-22.1,10.8-30c7.6-8.3,17.5-12.4,29.7-12.4
		c9.3,0,17.3,2.4,24.2,7.3c6.4,4.5,11,10.7,13.8,18.5h-10c-2.2-5.1-5.6-9.1-10.1-12.1c-4.5-3-9.7-4.5-15.7-4.5c-6,0-11,0.9-14.9,2.6
		c-4,1.7-7.3,4-10,7c-5.5,6.1-8.2,14-8.2,23.7s2.7,17.6,8.2,23.7C23.9,205,32.2,208.2,43.1,208.2z"/>
	
		<path style="clip-path:url(#SVGID_00000117640613333671960840000016682843274759258771_);fill-rule:evenodd;clip-rule:evenodd;fill:#262526;" d="
		M129.6,208.2c10,0,18-3.2,24.2-9.6c5.9-6.2,8.9-14.1,8.9-23.7c0-9.6-3-17.5-8.9-23.7c-6.2-6.4-14.2-9.6-24.2-9.6
		c-10,0-18,3.2-24.2,9.6c-5.9,6.2-8.9,14.1-8.9,23.7c0,9.6,3,17.5,8.9,23.7C111.6,205,119.6,208.2,129.6,208.2z M129.6,132.5
		c12.5,0,22.7,4.1,30.8,12.4c7.8,8,11.8,18,11.8,30c0,12-3.9,22-11.8,30c-8,8.3-18.3,12.4-30.8,12.4c-12.5,0-22.7-4.1-30.8-12.4
		c-7.8-8-11.8-18-11.8-30c0-12,3.9-22,11.8-30C106.8,136.6,117.1,132.5,129.6,132.5z"/>
	
		<path style="clip-path:url(#SVGID_00000117640613333671960840000016682843274759258771_);fill-rule:evenodd;clip-rule:evenodd;fill:#262526;" d="
		M257.7,133.5v47.2c0,11-3.3,19.9-10,26.7c-6.6,6.7-15.1,10-25.7,10c-10.5,0-19-3.3-25.7-10c-6.6-6.8-9.9-15.6-9.9-26.7v-47.2h9.5
		v47.4c0,8.9,2.7,15.9,8.1,20.9c4.6,4.3,10.6,6.4,18,6.4c7.3,0,13.4-2.1,18.1-6.4c5.4-4.9,8.1-11.9,8.1-20.9v-47.4H257.7z"/>
	
		<path style="clip-path:url(#SVGID_00000117640613333671960840000016682843274759258771_);fill-rule:evenodd;clip-rule:evenodd;fill:#262526;" d="
		M286.6,175.7h29c8.9,0,15.1-2.8,18.5-8.3c1.3-2.1,1.9-4.8,1.9-8c0-5.3-1.8-9.4-5.4-12.4c-3.6-3.1-8.4-4.6-14.4-4.6h-29.5V175.7z
		 M286.6,216.3h-9.5v-82.9h40.1c8.5,0,15.4,2.3,20.5,7c5.1,4.6,7.7,10.9,7.7,18.9c0,10.3-4.3,17.4-13,21.2c-2.4,1.1-4.9,1.9-7.2,2.4
		l22,33.4H336l-20.3-31.8h-29.1V216.3z"/>
	
		<path style="clip-path:url(#SVGID_00000117640613333671960840000016682843274759258771_);fill-rule:evenodd;clip-rule:evenodd;fill:#262526;" d="
		M525.6,246.7c5.8,0,10.3-1.2,13.4-3.5c3.1-2.4,4.7-5.8,4.7-10.1c0-4.2-1.5-7.6-4.6-10.3c-3.4-3-8.2-4.5-14.6-4.5h-30.3v28.4H525.6z
		 M494.3,209.8h28.1c7.8,0,13-2.6,15.6-7.9c0.9-1.8,1.4-3.8,1.4-5.9c0-2.2-0.3-4-0.9-5.6c-0.6-1.7-1.5-3.1-2.8-4.4
		c-2.8-2.9-6.9-4.4-12.3-4.4h-29.1V209.8z M548.9,194.6c0,9.1-3.8,15.3-11.3,18.7c6.9,2.3,11.6,6.4,14.2,12.4c0.9,2.3,1.4,5,1.4,8.1
		c0,10-5.4,16.7-16.1,20c-3.5,1.2-7.7,1.8-12.5,1.8h-39.7v-82.9h37.6c9,0,15.9,2.4,20.6,7.3C546.9,183.8,548.9,188.7,548.9,194.6z"
		/>
	
		<path style="clip-path:url(#SVGID_00000117640613333671960840000016682843274759258771_);fill-rule:evenodd;clip-rule:evenodd;fill:#262526;" d="
		M605.9,247.5c10,0,18-3.2,24.2-9.6c5.9-6.2,8.9-14.1,8.9-23.7c0-9.6-3-17.5-8.9-23.7c-6.2-6.4-14.2-9.6-24.2-9.6
		c-10,0-18,3.2-24.2,9.6c-5.9,6.2-8.9,14.1-8.9,23.7c0,9.6,3,17.5,8.9,23.7C587.8,244.3,595.9,247.5,605.9,247.5z M605.9,171.7
		c12.5,0,22.7,4.1,30.8,12.4c7.8,8,11.8,18,11.8,30c0,12-3.9,22-11.8,30c-8,8.3-18.3,12.4-30.8,12.4c-12.5,0-22.7-4.1-30.8-12.4
		c-7.8-8-11.8-18-11.8-30c0-12,3.9-22,11.8-30C583.1,175.9,593.4,171.7,605.9,171.7z"/>
	
		<polygon style="clip-path:url(#SVGID_00000117640613333671960840000016682843274759258771_);fill-rule:evenodd;clip-rule:evenodd;fill:#262526;" points="
		719.6,181.7 690.4,181.7 690.4,255.6 680.9,255.6 680.9,181.7 651.6,181.7 651.6,172.7 719.6,172.7 	"/>
</g>
<g>
	<defs>
		<rect id="SVGID_00000154390496479572790500000012904313182012122559_" x="219.4" y="60.1" width="391.9" height="203.7"/>
	</defs>
	<clipPath id="SVGID_00000178912850168655287850000001950183422631432872_">
		<use xlink:href="#SVGID_00000154390496479572790500000012904313182012122559_"  style="overflow:visible;"/>
	</clipPath>
	
		<path style="clip-path:url(#SVGID_00000178912850168655287850000001950183422631432872_);fill-rule:evenodd;clip-rule:evenodd;fill:#FFDE62;" d="
		M381,254.3c-4.3-6.5-19.3-97.8-12.9-107.6c4.3-9.8,47.3-6.5,47.3-6.5s43-3.3,47.3,6.5c6.4,13-8.6,101.1-12.9,107.6
		c-4.3,6.5-34.4,6.5-34.4,6.5S385.3,260.8,381,254.3z"/>
	
		<path style="clip-path:url(#SVGID_00000178912850168655287850000001950183422631432872_);fill:none;stroke:#262526;stroke-width:4.9145;stroke-miterlimit:10;" d="
		M381,254.3c-4.3-6.5-19.3-97.8-12.9-107.6c4.3-9.8,47.3-6.5,47.3-6.5s43-3.3,47.3,6.5c6.4,13-8.6,101.1-12.9,107.6
		c-4.3,6.5-34.4,6.5-34.4,6.5S385.3,260.8,381,254.3z"/>
	
		<line style="clip-path:url(#SVGID_00000178912850168655287850000001950183422631432872_);fill:none;stroke:#262526;stroke-width:4.9145;stroke-linecap:round;stroke-miterlimit:10;" x1="583.5" y1="123.9" x2="247.3" y2="71.7"/>
	
		<path style="clip-path:url(#SVGID_00000178912850168655287850000001950183422631432872_);fill:none;stroke:#262526;stroke-width:4.9145;stroke-miterlimit:10;" d="
		M463.5,165.6c43.5-11,47.3-38.5,47.3-38.5"/>
	
		<path style="clip-path:url(#SVGID_00000178912850168655287850000001950183422631432872_);fill:none;stroke:#262526;stroke-width:4.9145;stroke-miterlimit:10;" d="
		M365.9,163c-24-13.6-26.4-65.2-26.4-65.2"/>
	
		<path style="clip-path:url(#SVGID_00000178912850168655287850000001950183422631432872_);fill:none;stroke:#262526;stroke-width:4.9145;stroke-miterlimit:10;" d="
		M504.4,104.3c0,0,0.5,22.8,6.6,22.8c6.4,0.2,6.6-22.8,6.6-22.8"/>
	
		<path style="clip-path:url(#SVGID_00000178912850168655287850000001950183422631432872_);fill:none;stroke:#262526;stroke-width:4.9145;stroke-miterlimit:10;" d="
		M333,78.2c0,0,0.5,22.8,6.6,22.8c6.4,0.2,6.6-22.8,6.6-22.8"/>
	
		<path style="clip-path:url(#SVGID_00000178912850168655287850000001950183422631432872_);fill-rule:evenodd;clip-rule:evenodd;fill:#BE584A;" d="
		M402.2,202.7c-3.1,10.3,4.6,51,5.9,57.8c3.7,0.2,6.3,0.2,7.4,0.2c-2.3-13.6-4.2-25.4-3.5-31.5c1.2-9.9,1.8-22.5,14.1-26.5H402.2z"
		/>
	
		<line style="clip-path:url(#SVGID_00000178912850168655287850000001950183422631432872_);fill:none;stroke:#262526;stroke-width:1.9658;stroke-miterlimit:10;" x1="400.9" y1="215.1" x2="419.7" y2="215.1"/>
	
		<line style="clip-path:url(#SVGID_00000178912850168655287850000001950183422631432872_);fill:none;stroke:#262526;stroke-width:1.9658;stroke-miterlimit:10;" x1="402.9" y1="234.7" x2="417.3" y2="234.7"/>
	
		<line style="clip-path:url(#SVGID_00000178912850168655287850000001950183422631432872_);fill:none;stroke:#262526;stroke-width:1.9658;stroke-miterlimit:10;" x1="406.1" y1="254.3" x2="419.1" y2="254.3"/>
	
		<line style="clip-path:url(#SVGID_00000178912850168655287850000001950183422631432872_);fill:none;stroke:#262526;stroke-width:1.9658;stroke-miterlimit:10;" x1="404.8" y1="247.7" x2="419.3" y2="247.7"/>
	
		<line style="clip-path:url(#SVGID_00000178912850168655287850000001950183422631432872_);fill:none;stroke:#262526;stroke-width:1.9658;stroke-miterlimit:10;" x1="403.9" y1="241.2" x2="416.9" y2="241.2"/>
	
		<line style="clip-path:url(#SVGID_00000178912850168655287850000001950183422631432872_);fill:none;stroke:#262526;stroke-width:1.9658;stroke-miterlimit:10;" x1="401.2" y1="221.7" x2="417.1" y2="221.7"/>
	
		<line style="clip-path:url(#SVGID_00000178912850168655287850000001950183422631432872_);fill:none;stroke:#262526;stroke-width:1.9658;stroke-miterlimit:10;" x1="402.2" y1="228.2" x2="416.6" y2="228.2"/>
	
		<line style="clip-path:url(#SVGID_00000178912850168655287850000001950183422631432872_);fill:none;stroke:#262526;stroke-width:1.9658;stroke-miterlimit:10;" x1="400.8" y1="208.6" x2="422.7" y2="208.6"/>
	
		<path style="clip-path:url(#SVGID_00000178912850168655287850000001950183422631432872_);fill:none;stroke:#262526;stroke-width:1.9658;stroke-linecap:round;stroke-miterlimit:10;" d="
		M437,202.7c5.6,5.8-5.3,57.4-5.3,57.4"/>
	
		<path style="clip-path:url(#SVGID_00000178912850168655287850000001950183422631432872_);fill-rule:evenodd;clip-rule:evenodd;fill:#BE584A;" d="
		M401.6,139.6c-13-0.1-30.8,0.9-33.4,7c-6.4,9.8,8.6,101.1,12.9,107.6c3,4.6,10.5,5.4,19.6,5.8c-15.4-17.9-18-57.5-20.5-88.2
		c-0.6-7.4,4.7-10,5.7-17c26.1-1.2,47.9-4.7,58.7-14.6c-13.4-1.2-29.1,0-29.1,0S409.3,139.7,401.6,139.6L401.6,139.6z"/>
	
		<line style="clip-path:url(#SVGID_00000178912850168655287850000001950183422631432872_);fill:none;stroke:#262526;stroke-width:1.9658;stroke-miterlimit:10;" x1="460.3" y1="202.7" x2="370.6" y2="202.5"/>
	
		<path style="clip-path:url(#SVGID_00000178912850168655287850000001950183422631432872_);fill:none;stroke:#262526;stroke-width:1.9658;stroke-linecap:round;stroke-miterlimit:10;" d="
		M402.2,202.7c-5.6,5.8,5.3,57.4,5.3,57.4"/>
	
		<path style="clip-path:url(#SVGID_00000178912850168655287850000001950183422631432872_);fill:none;stroke:#262526;stroke-width:4.9145;stroke-miterlimit:10;" d="
		M381,254.3c-4.3-6.5-19.3-97.8-12.9-107.6c4.3-9.8,47.3-6.5,47.3-6.5s43-3.3,47.3,6.5c6.4,13-8.6,101.1-12.9,107.6
		c-4.3,6.5-34.4,6.5-34.4,6.5S385.3,260.8,381,254.3z"/>
	
		<path style="clip-path:url(#SVGID_00000178912850168655287850000001950183422631432872_);fill-rule:evenodd;clip-rule:evenodd;fill:#FFDE62;" d="
		M222.6,145c0,14.6,12.4,20.4,24.7,20.4c12.4,0,24.7-5.8,24.7-20.4H222.6z"/>
	
		<path style="clip-path:url(#SVGID_00000178912850168655287850000001950183422631432872_);fill:none;stroke:#262526;stroke-width:4.9145;stroke-miterlimit:10;" d="
		M222.6,145c0,14.6,12.4,20.4,24.7,20.4c12.4,0,24.7-5.8,24.7-20.4"/>
	
		<polygon style="clip-path:url(#SVGID_00000178912850168655287850000001950183422631432872_);fill:none;stroke:#262526;stroke-width:4.9145;stroke-linecap:round;stroke-linejoin:round;stroke-miterlimit:10;" points="
		247.3,71.7 222.7,145.3 271.9,145.5 	"/>
	
		<path style="clip-path:url(#SVGID_00000178912850168655287850000001950183422631432872_);fill-rule:evenodd;clip-rule:evenodd;fill:#BE584A;" d="
		M222.7,149.2c1.9,11.9,13.2,16.8,24.4,16.8c6.5,0,13-1.6,17.7-5.3C248.3,159.1,233.5,155,222.7,149.2z"/>
	
		<path style="clip-path:url(#SVGID_00000178912850168655287850000001950183422631432872_);fill:none;stroke:#262526;stroke-width:4.9145;stroke-linejoin:round;stroke-miterlimit:10;" d="
		M222.6,145c0,14.6,12.4,20.4,24.7,20.4c12.4,0,24.7-5.8,24.7-20.4"/>
	
		<ellipse style="clip-path:url(#SVGID_00000178912850168655287850000001950183422631432872_);fill-rule:evenodd;clip-rule:evenodd;fill:#FFDE62;" cx="419.3" cy="102.3" rx="39.6" ry="39.1"/>
	
		<ellipse style="clip-path:url(#SVGID_00000178912850168655287850000001950183422631432872_);fill:none;stroke:#262526;stroke-width:4.9145;stroke-miterlimit:10;" cx="419.3" cy="102.3" rx="39.6" ry="39.1"/>
	
		<polyline style="clip-path:url(#SVGID_00000178912850168655287850000001950183422631432872_);fill:none;stroke:#262526;stroke-width:4.9145;stroke-miterlimit:10;" points="
		398.2,99.1 408.1,86 418,99.1 	"/>
	
		<polyline style="clip-path:url(#SVGID_00000178912850168655287850000001950183422631432872_);fill:none;stroke:#262526;stroke-width:4.9145;stroke-miterlimit:10;" points="
		431.2,99.1 441.1,86 451,99.1 	"/>
	
		<path style="clip-path:url(#SVGID_00000178912850168655287850000001950183422631432872_);fill-rule:evenodd;clip-rule:evenodd;fill:#BE584A;" d="
		M397.8,69.1c-10.5,7.3-16.8,19.2-16.8,32c0,21.1,17,38.4,38.4,39.1c-17.1-8.8-27.9-26.6-27.9-46C391.4,85.4,393.6,76.8,397.8,69.1z
		"/>
	
		<ellipse style="clip-path:url(#SVGID_00000178912850168655287850000001950183422631432872_);fill:none;stroke:#262526;stroke-width:4.9145;stroke-miterlimit:10;" cx="419.3" cy="102.3" rx="39.6" ry="39.1"/>
	
		<path style="clip-path:url(#SVGID_00000178912850168655287850000001950183422631432872_);fill-rule:evenodd;clip-rule:evenodd;fill:#FFDE62;" d="
		M558.8,197.2c0,14.6,12.4,20.4,24.7,20.4c12.4,0,24.7-5.8,24.7-20.4H558.8z"/>
	
		<path style="clip-path:url(#SVGID_00000178912850168655287850000001950183422631432872_);fill:none;stroke:#262526;stroke-width:4.9145;stroke-miterlimit:10;" d="
		M558.8,197.2c0,14.6,12.4,20.4,24.7,20.4c12.4,0,24.7-5.8,24.7-20.4"/>
	
		<polygon style="clip-path:url(#SVGID_00000178912850168655287850000001950183422631432872_);fill:none;stroke:#262526;stroke-width:4.9145;stroke-linecap:round;stroke-linejoin:round;stroke-miterlimit:10;" points="
		583.5,123.9 558.9,197.5 608.1,197.7 	"/>
	
		<path style="clip-path:url(#SVGID_00000178912850168655287850000001950183422631432872_);fill-rule:evenodd;clip-rule:evenodd;fill:#BE584A;" d="
		M558.9,201.4c1.9,11.9,13.2,16.8,24.4,16.8c6.5,0,13-1.6,17.7-5.3C584.5,211.3,569.7,207.2,558.9,201.4z"/>
	
		<path style="clip-path:url(#SVGID_00000178912850168655287850000001950183422631432872_);fill:none;stroke:#262526;stroke-width:4.9145;stroke-linejoin:round;stroke-miterlimit:10;" d="
		M558.8,197.2c0,14.6,12.4,20.4,24.7,20.4c12.4,0,24.7-5.8,24.7-20.4"/>
</g>
</svg>
